<?xml version="1.0" encoding="UTF-8"?>
<svg version="1.1" xmlns="http://www.w3.org/2000/svg" width="204" height="192">
<path d="M0 0 C67.32 0 134.64 0 204 0 C204 63.36 204 126.72 204 192 C136.68 192 69.36 192 0 192 C0 128.64 0 65.28 0 0 Z " fill="#001B94" transform="translate(0,0)"/>
<path d="M0 0 C0.33 0 0.66 0 1 0 C1 11.22 1 22.44 1 34 C-6.26 34 -13.52 34 -21 34 C-16 29 -16 29 -12.953125 26.67578125 C-9.43444269 23.4875572 -7.74542514 20.42977384 -5.75 16.1875 C-5.41226563 15.51396484 -5.07453125 14.84042969 -4.7265625 14.14648438 C-2.47452728 9.51385288 -1.10390417 5.02952257 0 0 Z " fill="#F9F9FC" transform="translate(203,158)"/>
<path d="M0 0 C0.33 0 0.66 0 1 0 C1.25652344 1.155 1.51304688 2.31 1.77734375 3.5 C2.89284802 7.93469063 4.53336371 11.91096791 6.5625 16 C6.90748535 16.69625488 7.2524707 17.39250977 7.60791016 18.10986328 C10.7146603 24.04674466 14.59906238 28.03333627 20 32 C20.66 32.66 21.32 33.32 22 34 C14.74 34 7.48 34 0 34 C0 22.78 0 11.56 0 0 Z " fill="#F6F7FA" transform="translate(0,158)"/>
<path d="M0 0 C7.26 0 14.52 0 22 0 C22 11.88 22 23.76 22 36 C21.67 36 21.34 36 21 36 C20.85304687 35.09121094 20.85304687 35.09121094 20.703125 34.1640625 C18.4696004 21.64862293 14.00660708 11.26376101 3.5625 3.5 C2.88316406 3.0359375 2.20382813 2.571875 1.50390625 2.09375 C1.00761719 1.7328125 0.51132813 1.371875 0 1 C0 0.67 0 0.34 0 0 Z " fill="#F7F7FB" transform="translate(182,0)"/>
<path d="M0 0 C7.26 0 14.52 0 22 0 C19.48774352 2.51225648 17.22074556 4.68603653 14.5 6.875 C7.14812094 13.19448753 2.38630124 23.12533862 1.1875 32.75 C1.125625 33.8225 1.06375 34.895 1 36 C0.67 36 0.34 36 0 36 C0 24.12 0 12.24 0 0 Z " fill="#F7F8FB" transform="translate(0,0)"/>
<path d="M0 0 C2.5625 0.3125 2.5625 0.3125 4.375 1.5 C5.98775784 3.96157776 5.9959014 5.42315736 5.5625 8.3125 C4.4375 10.1875 4.4375 10.1875 2.5625 11.3125 C-0.5 11.1875 -0.5 11.1875 -3.4375 10.3125 C-5.4375 7.3125 -5.4375 7.3125 -5.1875 4.75 C-4.19253762 1.51637226 -3.41216263 0.43745675 0 0 Z " fill="#DFE0EE" transform="translate(98.4375,93.6875)"/>
<path d="M0 0 C2.4375 0.8125 2.4375 0.8125 4.4375 3.8125 C4.1133631 7.13490324 3.82973697 8.42026303 1.4375 10.8125 C-1.0625 11.0625 -1.0625 11.0625 -3.5625 10.8125 C-5.5625 8.8125 -5.5625 8.8125 -5.875 5.3125 C-5.771875 4.1575 -5.66875 3.0025 -5.5625 1.8125 C-2.5625 -0.1875 -2.5625 -0.1875 0 0 Z " fill="#E4E5F1" transform="translate(76.5625,117.1875)"/>
<path d="M0 0 C2.5625 0.375 2.5625 0.375 4.4375 2.0625 C5.5625 4.375 5.5625 4.375 5.4375 7 C4.5625 9.375 4.5625 9.375 1.5625 11.375 C-2.97804054 10.83445946 -2.97804054 10.83445946 -4.4375 9.375 C-4.625 5.9375 -4.625 5.9375 -4.4375 2.375 C-2.4375 0.375 -2.4375 0.375 0 0 Z " fill="#E6E7F2" transform="translate(75.4375,133.625)"/>
<path d="M0 0 C3 0.25 3 0.25 5 2.25 C5.25 5.25 5.25 5.25 5 8.25 C3 10.25 3 10.25 0 10.5 C-3 10.25 -3 10.25 -5 8.25 C-5.25 5.25 -5.25 5.25 -5 2.25 C-3 0.25 -3 0.25 0 0 Z " fill="#E6E7F2" transform="translate(87,105.75)"/>
<path d="M0 0 C2.4375 0.8125 2.4375 0.8125 4.4375 2.8125 C4.82036803 6.54546326 4.58665785 7.58876323 2.4375 10.8125 C-0.42868213 11.2534511 -1.92905047 11.22751866 -4.375 9.625 C-5.98775784 7.16342224 -5.9959014 5.70184264 -5.5625 2.8125 C-3.86282344 0.12880016 -3.19877434 -0.23405666 0 0 Z " fill="#E8E9F3" transform="translate(138.5625,54.1875)"/>
<path d="M0 0 C3.375 -0.125 3.375 -0.125 7 0 C9 2 9 2 9.3125 4.4375 C9 7 9 7 7.8125 8.8125 C5.3864306 10.40199375 3.84602594 10.36487512 1 10 C-1 8 -1 8 -1.1875 5 C-1 2 -1 2 0 0 Z " fill="#E7E9F3" transform="translate(85,55)"/>
<path d="M0 0 C3 0.25 3 0.25 5 2.25 C5.36487512 5.09602594 5.40199375 6.6364306 3.8125 9.0625 C1.3864306 10.65199375 -0.15397406 10.61487512 -3 10.25 C-5 8.25 -5 8.25 -5.25 5.25 C-4.90584825 1.120179 -4.129821 0.34415175 0 0 Z " fill="#E9EAF3" transform="translate(59,117.75)"/>
<path d="M0 0 C1.9375 0.8125 1.9375 0.8125 3.9375 2.8125 C4.1875 5.8125 4.1875 5.8125 3.9375 8.8125 C1.9375 10.8125 1.9375 10.8125 -0.5 11.1875 C-3.0625 10.8125 -3.0625 10.8125 -4.9375 9.0625 C-6.0625 6.8125 -6.0625 6.8125 -5.9375 4.75 C-4.58586786 1.75710025 -3.5211058 -0.32010053 0 0 Z " fill="#EAEBF4" transform="translate(43.0625,117.1875)"/>
<path d="M0 0 C3.5 0.125 3.5 0.125 4.5 1.125 C4.6875 4.5625 4.6875 4.5625 4.5 8.125 C2.5 10.125 2.5 10.125 0.0625 10.5 C-2.5 10.125 -2.5 10.125 -4.375 8.4375 C-5.78864911 5.53166572 -5.48170152 4.15191303 -4.5 1.125 C-3.5 0.125 -3.5 0.125 0 0 Z " fill="#EAEBF4" transform="translate(121.5,54.875)"/>
<path d="M0 0 C3.5 0.125 3.5 0.125 4.5 1.125 C4.6875 4.5625 4.6875 4.5625 4.5 8.125 C2.5 10.125 2.5 10.125 0.0625 10.5 C-2.5 10.125 -2.5 10.125 -4.375 8.4375 C-5.78864911 5.53166572 -5.48170152 4.15191303 -4.5 1.125 C-3.5 0.125 -3.5 0.125 0 0 Z " fill="#EBEBF4" transform="translate(72.5,54.875)"/>
<path d="M0 0 C2.875 0.75 2.875 0.75 3.875 1.75 C4.0625 4.6875 4.0625 4.6875 3.875 7.75 C1.875 9.75 1.875 9.75 -1.125 10 C-4.125 9.75 -4.125 9.75 -6.125 7.75 C-6.4883156 4.91613833 -6.4818671 3.34477849 -5 0.875 C-3.125 -0.25 -3.125 -0.25 0 0 Z " fill="#EEEFF6" transform="translate(139.125,71.25)"/>
<path d="M0 0 C3 0.25 3 0.25 5 2.25 C5.3125 5.25 5.3125 5.25 5 8.25 C2 10.25 2 10.25 -0.5625 10 C-3 9.25 -3 9.25 -5 7.25 C-5.25 4.75 -5.25 4.75 -5 2.25 C-3 0.25 -3 0.25 0 0 Z " fill="#EBECF5" transform="translate(105,54.75)"/>
<path d="M0 0 C2.4375 0.75 2.4375 0.75 4.4375 2.75 C3.86931818 8.31818182 3.86931818 8.31818182 2.4375 9.75 C-0.5 9.9375 -0.5 9.9375 -3.5625 9.75 C-5.5625 7.75 -5.5625 7.75 -5.875 4.75 C-5.771875 3.76 -5.66875 2.77 -5.5625 1.75 C-2.5625 -0.25 -2.5625 -0.25 0 0 Z " fill="#EFF0F7" transform="translate(122.5625,71.25)"/>
<path d="M0 0 C3.625 0.375 3.625 0.375 7 1 C8.33157895 6.44736842 8.33157895 6.44736842 6.875 8.875 C4.40522151 10.3568671 2.83386167 10.3633156 0 10 C-2 8 -2 8 -2.25 5 C-2 2 -2 2 0 0 Z " fill="#EFF0F7" transform="translate(147,43)"/>
<path d="M0 0 C6.72 0.72 6.72 0.72 8 2 C7.28 8.72 7.28 8.72 6 10 C3.2040342 10.29431219 1.56287181 10.33772308 -0.875 8.875 C-2 7 -2 7 -1.75 3.875 C-1 1 -1 1 0 0 Z " fill="#F2F2F8" transform="translate(107,83)"/>
<path d="M0 0 C2.625 0.25 2.625 0.25 4.5 1.4375 C5.625 3.25 5.625 3.25 5.4375 5.8125 C4.625 8.25 4.625 8.25 2.625 10.25 C0.125 10.5 0.125 10.5 -2.375 10.25 C-3.035 9.59 -3.695 8.93 -4.375 8.25 C-3.68534483 0.38793103 -3.68534483 0.38793103 0 0 Z " fill="#F0F1F7" transform="translate(75.375,150.75)"/>
<path d="M0 0 C3.625 0.375 3.625 0.375 7 1 C8.32278481 6.41139241 8.32278481 6.41139241 6.9375 8.9375 C4.08906752 10.49954362 2.06495097 9.74921024 -1 9 C-1.625 5.625 -1.625 5.625 -2 2 C-1.34 1.34 -0.68 0.68 0 0 Z " fill="#F3F4F9" transform="translate(159,31)"/>
<path d="M0 0 C1.9375 0.6875 1.9375 0.6875 3.9375 1.6875 C4.0625 4.5625 4.0625 4.5625 3.9375 7.6875 C1.9375 9.6875 1.9375 9.6875 -1.0625 10 C-2.0525 9.896875 -3.0425 9.79375 -4.0625 9.6875 C-6.0625 6.6875 -6.0625 6.6875 -5.875 4.125 C-4.82444404 0.97333211 -3.46971929 -0.52571504 0 0 Z " fill="#E5E7F2" transform="translate(138.0625,87.3125)"/>
<path d="M0 0 C3.0625 0.1875 3.0625 0.1875 5.0625 2.1875 C5.3125 4.6875 5.3125 4.6875 5.0625 7.1875 C3.0625 9.1875 3.0625 9.1875 0.625 9.5 C-1.9375 9.1875 -1.9375 9.1875 -3.8125 8 C-4.9375 6.1875 -4.9375 6.1875 -4.6875 3.5625 C-3.63578571 0.23207143 -3.63578571 0.23207143 0 0 Z " fill="#EDEEF6" transform="translate(136.9375,104.8125)"/>
<path d="M0 0 C2.5 0.25 2.5 0.25 4.5 2.25 C4.75 4.75 4.75 4.75 4.5 7.25 C2.5 9.25 2.5 9.25 0 9.5 C-2.5 9.25 -2.5 9.25 -4.5 7.25 C-4.75 4.75 -4.75 4.75 -4.5 2.25 C-2.5 0.25 -2.5 0.25 0 0 Z " fill="#F7F8FB" transform="translate(137.5,120.75)"/>
<path d="M0 0 C0.33 0 0.66 0 1 0 C1.10884119 1.41493551 1.18597617 2.83232943 1.25 4.25 C1.29640625 5.03890625 1.3428125 5.8278125 1.390625 6.640625 C1 9 1 9 -3 13 C-2.01 8.71 -1.02 4.42 0 0 Z " fill="#D4D6E9" transform="translate(203,158)"/>
</svg>
